<?xml version="1.0" encoding="UTF-8" standalone="no"?>
<!-- Created with Inkscape (http://www.inkscape.org/) -->

<svg
   version="1.1"
   id="svg1"
   width="478"
   height="53"
   viewBox="0 0 478 53"
   sodipodi:docname="addr.svg"
   inkscape:version="1.4.2 (f4327f4, 2025-05-13)"
   xmlns:inkscape="http://www.inkscape.org/namespaces/inkscape"
   xmlns:sodipodi="http://sodipodi.sourceforge.net/DTD/sodipodi-0.dtd"
   xmlns="http://www.w3.org/2000/svg"
   xmlns:svg="http://www.w3.org/2000/svg">
  <defs
     id="defs1" />
  <sodipodi:namedview
     id="namedview1"
     pagecolor="#ffffff"
     bordercolor="#000000"
     borderopacity="0.25"
     inkscape:showpageshadow="2"
     inkscape:pageopacity="0.0"
     inkscape:pagecheckerboard="0"
     inkscape:deskcolor="#d1d1d1"
     inkscape:zoom="3.0460251"
     inkscape:cx="239.16415"
     inkscape:cy="26.427885"
     inkscape:window-width="1600"
     inkscape:window-height="837"
     inkscape:window-x="-8"
     inkscape:window-y="-8"
     inkscape:window-maximized="1"
     inkscape:current-layer="g1" />
  <g
     inkscape:groupmode="layer"
     inkscape:label="Image"
     id="g1">
    <path
       style="fill:#000000"
       d="M 238.34341,53.328296 H -0.65659343 v -26.5 V 0.32829642 H 238.34341 h 239 v 26.49999958 26.5 z m -93.29393,-17 h 1.15107 l 1.57143,-1.571429 1.57143,-1.571428 v -4.928572 -4.928571 l -2.75,0.136182 -2.75,0.136182 2.25,0.433369 2.25,0.433369 v 4.373745 4.373745 l -2.22251,1.556704 -2.2225,1.556704 z m 43.13534,-0.401987 1.18717,-0.73371 1.8574,-3.682152 1.8574,-3.682151 0.66267,-2.5 0.66266,-2.5 -1.90935,3.442063 -1.90936,3.442064 -1.65068,-3.192064 -1.65068,-3.192063 h -0.43878 -0.43879 l 1.88325,4.393442 1.88325,4.393442 -1.59166,2.272419 -1.59167,2.27242 z m 66.97433,0.386674 0.31574,0.01531 1.93426,-1.035184 1.93426,-1.035184 v -5.464813 -5.464816 h -3.39159 -3.39159 l -0.63261,2.520519 -0.63261,2.52052 1.11272,2.079136 1.11272,2.079137 2.41148,-0.460984 2.41148,-0.460984 v 0.738883 0.738884 l -1.37325,1.139697 -1.37325,1.139698 -1.87675,-0.611585 -1.87675,-0.611585 1.5,1.079019 1.5,1.079019 z m 1.00173,-5.188052 -1.68253,0.324026 -1.06388,-1.987888 -1.06389,-1.987889 0.62369,-1.625314 0.6237,-1.625314 2.12272,0.302872 2.12272,0.302872 v 2.986305 2.986305 z m 72.4886,4.639411 1.69393,-0.650024 v -0.26858 -0.268581 l 2.51976,-5.874431 2.51976,-5.87443 -1.51976,1.94113 -1.51976,1.941129 v 1.308871 1.30887 h -0.87868 -0.87868 l -1.25592,-3.032065 -1.25592,-3.032064 -0.40725,0.407244 -0.40724,0.407244 1.66465,4.160379 1.66465,4.160379 -1.81674,2.007476 -1.81674,2.007476 z M 52.843407,35.328296 h 0.5 v -6 -6 h -2.980948 -2.980948 l -0.666306,2.654777 -0.666307,2.654776 1.004438,1.595224 1.004438,1.595223 1.392816,0.09629 1.392817,0.09629 -1.249318,-0.419484 -1.249318,-0.419484 -0.594825,-2.369971 -0.594825,-2.369972 0.65316,-1.056836 0.65316,-1.056835 h 1.940983 1.940983 v 5.5 5.5 z m 232.186313,-1.601746 0.41394,-2.101747 2.40377,0.459511 2.40378,0.459511 0.63466,-2.528669 0.63465,-2.52867 -0.34674,-1.829095 -0.34675,-1.829095 -3.24181,-0.313358 -3.24181,-0.313359 0.13618,6.313359 0.13618,6.313358 z m 3.26493,-2.627379 -1.54877,0.298264 -0.70123,-0.701236 -0.70124,-0.701236 v -2.902885 -2.902884 l 2.25,0.319551 2.25,0.319551 v 2.986305 2.986305 z m -270.701243,0.829125 3.25,-0.1 v -4 -4 l -2.688374,-0.310476 -2.688374,-0.310475 -0.425444,-2.189525 -0.425444,-2.189524 -0.136182,6.6 -0.136182,6.6 z m 0.701236,-0.829125 -1.548763,0.298264 -0.701237,-0.701236 -0.701236,-0.701236 v -2.902885 -2.902884 l 2.25,0.319551 2.25,0.319551 v 2.986305 2.986305 z m 9.961503,1.229125 h 1.842372 l 1.372444,-1.660655 1.372445,-1.660656 -2.310904,1.410656 -2.310904,1.410655 -1.439096,-1.94113 -1.439096,-1.941129 v -0.737442 -0.737442 l 1.571429,-1.571428 1.571428,-1.571429 h -1.092867 -1.092868 l -1.081442,2.373507 -1.081442,2.373507 1.138065,2.126493 1.138065,2.126493 z m 11.587261,0 h 0.5 v -6 -6 h -1.440983 -1.440983 l -0.723062,1.169939 -0.723062,1.169938 1.664045,-0.638553 1.664045,-0.638554 v 5.468615 5.468615 z m 21.75,-0.131641 4.25,-0.131641 -3.402258,-0.618359 -3.402257,-0.618359 2.652257,-3.144356 2.652258,-3.144356 V 23.93394 23.328296 l -3.75,0.149832 -3.75,0.149832 2.813363,0.422705 2.813362,0.422704 -2.563362,3.360742 -2.563363,3.360741 v 0.566722 0.566722 z m 6.482205,-3.618359 0.382791,-4.25 h 1.442502 1.442502 l 0.174707,4.25 0.174707,4.25 0.382791,-4.25 0.382791,-4.25 h 1.385004 1.385004 l 0.393008,3.75 0.393007,3.75 -0.08551,-4 -0.08551,-4 -4.25,-0.307498 -4.25,-0.307498 0.174707,4.807498 0.174707,4.807498 z m 14,0 0.382791,-4.25 2.192502,-0.06339 2.192502,-0.06339 -2.25,-0.904389 -2.25,-0.90439 v -0.879409 -0.87941 l 2.25,-1.148924 2.25,-1.148923 -1.892817,0.246109 -1.892816,0.246109 -1.107184,2 -1.107183,2 -1,0.734687 -1,0.734687 1.25,0.01531 1.25,0.01532 0.174707,4.25 0.174707,4.25 z m 8.1597,0.25 0.608095,-4 2.25,-0.319551 2.25,-0.319551 v 4.069551 4.069551 h 1 1.000003 v -2.918213 -2.918212 l -0.606992,-1.581788 -0.606989,-1.581787 h -3.393011 -3.393011 l 0.141905,4.75 0.141906,4.75 z m 14.185658,3.5 h 1.67755 l 1.32422,-1.75 1.32421,-1.75 -1.40177,1.25 -1.40177,1.25 h -1.78095 -1.78095 l -0.61319,-2.443165 -0.6132,-2.443164 0.65316,-1.056836 0.65316,-1.056835 h 1.74099 1.74098 l 1.25925,1.25 1.25924,1.25 -0.66623,-1.75 -0.66624,-1.75 h -2.78602 -2.78602 l -0.60699,1.581787 -0.60699,1.581788 v 1.718212 1.718213 l 1.2,1.2 1.2,1.2 z m 8.92244,0 h 1 v -3.532224 -3.532224 l 2.25,-0.872573 2.25,-0.872573 -3.25,0.05698 -3.25,0.05698 v 4.347814 4.34782 z m 13.19098,-0.01531 1.69099,0.01531 0.4843,-0.783619 0.4843,-0.783619 -2.57767,0.03362 -2.57767,0.03362 -0.43095,-1.25 -0.43095,-1.25 h 3.15289 3.15288 l -0.31955,-2.171672 -0.31955,-2.171672 -1.275,-0.253328 -1.275,-0.253328 1.025,0.508333 1.025,0.508334 v 1.416666 1.416667 h -2.5 -2.5 v -1.416667 -1.416666 l 1.25,-0.504386 1.25,-0.504386 -1.28222,-0.07895 -1.28223,-0.07895 -0.83637,2.25 -0.83638,2.25 0.54566,1.5 0.54566,1.5 1.07294,0.734687 1.07294,0.734687 z m 10.85099,-0.184711 2.95803,-0.225394 -0.13618,-6.537293 -0.13618,-6.537292 -0.43337,2.25 -0.43337,2.25 h -2.45189 -2.45189 l -1.08144,2.373507 -1.08144,2.373507 1.14485,2.139179 1.14486,2.139179 z m -0.2245,-1.003344 -1.68253,0.324026 -1.06388,-1.987888 -1.06389,-1.987889 0.62369,-1.625314 0.6237,-1.625314 2.12272,0.302872 2.12272,0.302872 v 2.986305 2.986305 z m 21.29568,0.48805 0.78253,-0.784685 1.56558,-3.75 1.56558,-3.75 h -0.56544 -0.56544 l -1.0458,3 -1.04581,3 h -0.80435 -0.80435 l -1.10233,-3.162158 -1.10234,-3.162157 -0.48474,0.484738 -0.48473,0.484738 1.65456,4.212105 1.65456,4.212105 z m 10.91832,0.04108 0.783,-0.825764 1.54174,-3.75 1.54174,-3.75 h -0.94898 -0.94897 v 0.9349 0.934901 l -1.0644,2.799581 -1.0644,2.799581 -1.95209,-3.984482 -1.95208,-3.984481 0.61877,2 0.61877,2 1.02195,2.825764 1.02195,2.825763 z m 10.46853,0.527825 4,0.08559 -1.75,-1.019282 -1.75,-1.019278 v -5.45031 -5.45031 l -2.25,0.116001 -2.25,0.116002 1.75,0.457323 1.75,0.457322 v 5.353352 5.353352 l -1.75,0.457322 -1.75,0.457323 z m 23.91667,0.08302 2.08333,-0.06339 -2.25,-0.904389 -2.25,-0.90439 V 27.36052 24.328296 l 1.75,-0.116001 1.75,-0.116002 -1.75,-0.457323 -1.75,-0.457322 v -1.617806 -1.617805 l -1.43011,1.941129 -1.43012,1.94113 0.93012,0.333333 0.93011,0.333334 v 3.25 3.25 l 0.66667,0.666666 0.66666,0.666667 z m 8.31554,-3.68661 0.38279,-4.25 1.6925,-0.116001 1.6925,-0.116002 -1.75,-0.457323 -1.75,-0.457322 v -1.4589 -1.4589 l 2.25,-0.90439 2.25,-0.904389 -1.16821,-0.06339 -1.16822,-0.06338 -1.58178,0.606989 -1.58179,0.606989 v 1.343321 1.343321 l -1.75,1.019281 -1.75,1.019282 1.75,0.03041 1.75,0.03041 0.17471,4.25 0.1747,4.25 z m 11,0 0.38279,-4.25 1.6925,-0.116001 1.6925,-0.116002 -1.75,-0.457323 -1.75,-0.457322 v -1.376986 -1.376986 l 1.75,-1.019281 1.75,-1.019282 -0.66821,-0.03041 -0.66822,-0.03041 -1.58178,0.606989 -1.58179,0.606989 v 1.343321 1.343321 l -1.75,1.019281 -1.75,1.019282 1.75,0.03041 1.75,0.03041 0.17471,4.25 0.1747,4.25 z m 9.10946,2.725 0.38333,-1.15 -1.1125,-1.1125 -1.1125,-1.1125 v 1.533333 1.533334 l 0.72917,0.729166 0.72916,0.729167 z m 4.15833,0.025 0.96937,-1.5 v -1.5 -1.5 l -0.96937,1.5 -0.96937,1.5 v 1.5 1.5 z m 8.95403,0.79591 2.52887,-0.29591 0.33665,-1.774794 0.33665,-1.774794 -3.0781,-1.073031 -3.0781,-1.073031 v -0.818842 -0.818841 l 1.025,-0.508334 1.025,-0.508333 -1.2125,0.2375 -1.2125,0.2375 -0.37628,1.128838 -0.37628,1.128838 3.17868,1.64376 3.17868,1.64376 -1.13986,1.139862 -1.13986,1.139861 -1.97504,-1.233433 -1.97504,-1.233434 v 0.841807 0.841808 l 0.71258,0.712576 0.71257,0.712576 z m 19.93788,-3.255282 0.60809,-3.959371 2.5,-0.708542 2.5,-0.708542 -3.25,0.130621 -3.25,0.130621 0.14191,4.537293 0.1419,4.537292 z m 11.15231,3.459372 h 1.71089 l 1.31228,-1.581201 1.31228,-1.581202 -1.04548,-1.674088 -1.04549,-1.674089 1.0887,-1.725946 1.0887,-1.725947 -1.62154,-1.621542 -1.62155,-1.621542 -2.1115,0.670166 -2.11151,0.670166 v 1.055057 1.055057 l 1.48727,-1.23432 1.48726,-1.23432 1.51274,0.580491 1.51273,0.58049 v 1.625005 1.625004 l -2.17626,0.569105 -2.17626,0.569105 2.2505,0.832515 2.2505,0.832515 -0.33572,1.743277 -0.33573,1.743277 -1.86869,0.359877 -1.86869,0.359876 -0.85451,-1.348393 -0.85451,-1.348393 -0.0153,1.083333 -0.0153,1.083334 0.66667,0.666666 0.66666,0.666667 z m 22.13769,-0.149832 4.31809,-0.149832 -2.75,-0.41659 -2.75,-0.416591 v -0.589186 -0.589187 l 2.55089,-3.344391 2.55089,-3.344391 -3.80089,0.118315 -3.80089,0.118315 3,0.652888 3,0.652888 -1.20344,0.759038 -1.20344,0.759038 -2.11465,2.969759 -2.11466,2.969759 z m 9.24478,0.149832 h 0.4267 l 2.5733,-5.620843 2.57331,-5.620843 v -0.879157 -0.879157 l -4.25,0.136182 -4.25,0.136182 2.5,0.412853 2.5,0.412853 1.27742,0.430102 1.27742,0.430101 -2.52742,4.98762 -2.52742,4.98762 v 0.533243 0.533244 z m 12.57331,0 h 1.75511 l 1.31228,-1.581201 1.31228,-1.581202 -1.08296,-1.734089 -1.08295,-1.734089 0.86068,-1.537947 0.86068,-1.537947 -1.29376,-1.769314 -1.29375,-1.769313 -2.20003,0.698263 -2.20003,0.698262 0.21633,3.212188 0.21633,3.212187 -0.7762,1.255906 -0.77619,1.255906 1.20853,1.456195 1.20854,1.456195 z m 0.37728,-1.197128 -2.12272,0.302872 -0.53476,-1.393556 -0.53476,-1.393556 0.77731,-1.257709 0.7773,-1.257709 1.88018,0.362088 1.88017,0.362088 v 1.986305 1.986305 z m -0.0156,-5.802872 h -1.4244 l -0.6014,-1.567217 -0.6014,-1.567218 1.09041,-1.090401 1.0904,-1.090401 1.48294,1.230732 1.48294,1.230731 -0.54755,1.426887 -0.54755,1.426887 z m 21.61274,6.80513 3.02563,-0.230545 -0.13618,-6.537293 -0.13618,-6.537292 -0.42545,2.189524 -0.42544,2.189525 -2.5805,0.310475 -2.58051,0.310476 -0.72779,2 -0.7278,2 0.8443,2.267837 0.8443,2.267837 z m -0.0231,-1.02875 -1.54877,0.292759 -0.70123,-0.701236 -0.70127,-0.701236 v -2.833334 -2.833333 h 2.56336 2.56336 l -0.31336,3.241811 -0.31336,3.24181 z m 12.86905,0.01492 0.67968,-1.708706 -0.34651,-5.041297 -0.34652,-5.041297 -0.65348,0.0018 -0.65349,0.0018 -2.75,4.353069 -2.75,4.35307 v 0.645118 0.645143 h 3 3 l 0.0703,1.75 0.0703,1.75 z m -3.37686,-2.7913 h -2.55653 l 1.77214,-3 1.77215,-3 h 0.78439 0.78439 v 3 3 z m 11.80654,3.839963 4.25,-0.160037 -3.31658,-0.408287 -3.31657,-0.408287 2.56657,-3.364954 2.56658,-3.364954 v -1.999334 -1.999335 l -2.04799,-0.650006 -2.04799,-0.650006 -1.45201,1.205063 -1.45201,1.205063 v 1.068685 1.068685 l 1.35539,-1.853609 1.35539,-1.85361 1.64461,0.631095 1.64461,0.631095 v 1.844294 1.844294 l -3,2.874182 -3,2.874182 v 0.812909 0.812909 z m 8.5952,-1.244951 2.1548,-1.904987 2.1548,1.904987 2.1548,1.904988 -1.80345,-2.801347 -1.80346,-2.801346 1.14866,-1.148654 1.14865,-1.148653 -0.0318,-1.05 -0.0318,-1.05 -1.46819,1.94113 -1.4682,1.941129 -1.4682,-1.941129 -1.46819,-1.94113 -0.0318,1.05 -0.0318,1.05 1.14865,1.148653 1.14866,1.148654 -1.80346,2.801346 -1.80345,2.801347 z m 11.24652,-0.131463 0.76771,-1.963549 0.055,-1 0.055,-1 -0.96943,1.5 -0.96937,1.5 -0.0153,-1.916667 -0.0153,-1.916666 -0.54867,0.548668 -0.54867,0.548667 0.71068,2.831548 0.71067,2.831547 z m 4.74995,0.511451 0.38333,-1.15 -1.1125,-1.1125 -1.1125,-1.1125 v 1.533333 1.533334 l 0.72917,0.729166 0.72916,0.729167 z m 6.07959,0.984962 1.42126,0.04004 1.82874,-1.654988 1.82874,-1.654987 v -3.722568 -3.722568 l -1.45201,-1.205063 -1.45201,-1.205063 -2.04799,0.650006 -2.04799,0.650006 v 2.810168 2.810168 l 1.5,1.244889 1.5,1.244889 v -1.122444 -1.122445 h -1 -1 v -2.440983 -2.440983 l 1.09596,-0.677341 1.09596,-0.677342 1.63449,1.63449 1.63449,1.63449 -1.23892,1.983835 -1.23893,1.983834 h 1.00848 1.00847 v 0.968063 0.968062 l -2.75,1.4919 -2.75,1.4919 z m 9.81095,-3.709962 0.38279,-4.25 h 2.385 2.385 l 0.41744,4.25 0.41744,4.25 -0.10994,-4.5 -0.10994,-4.5 -2.68837,-0.310476 -2.68838,-0.310475 -0.42544,-2.189525 -0.42545,-2.189524 0.0385,7 0.0385,7 z m 14.3944,3.453185 2.95942,-0.203185 -0.29302,-3.922279 -0.29301,-3.92228 -1.5,-0.490342 -1.5,-0.490342 1.37244,1.662622 1.37245,1.662621 h -2.05102 -2.05101 l -1.60595,1.605946 -1.60594,1.605946 1.1181,1.347239 1.11811,1.347238 z m -1.74905,-0.703185 h -1.37756 v -1.531385 -1.531385 l 1.45211,-0.557228 1.45212,-0.557228 1.09644,0.677641 1.09645,0.67764 -1.17101,1.410973 -1.171,1.410972 z m 11.62244,1 h 1.75511 l 1.31228,-1.581201 1.31228,-1.581202 -1.08296,-1.734089 -1.08295,-1.734089 0.86068,-1.537947 0.86068,-1.537947 -1.29376,-1.769314 -1.29375,-1.769313 -2.20003,0.698263 -2.20003,0.698262 0.21633,3.212188 0.21633,3.212187 -0.7762,1.255906 -0.77619,1.255906 1.20853,1.456195 1.20854,1.456195 z m 0.37728,-1.197128 -2.12272,0.302872 -0.53476,-1.393556 -0.53476,-1.393556 0.77731,-1.257709 0.7773,-1.257709 1.88018,0.362088 1.88017,0.362088 v 1.986305 1.986305 z m -0.0156,-5.802872 h -1.4244 l -0.6014,-1.567217 -0.6014,-1.567218 1.09041,-1.090401 1.0904,-1.090401 1.48294,1.230732 1.48294,1.230731 -0.54755,1.426887 -0.54755,1.426887 z m 11.24425,6.761928 2.39412,-0.198144 -0.13618,-6.531892 -0.13618,-6.531892 -0.42545,2.189524 -0.42544,2.189525 -2.68838,0.310475 -2.68837,0.310476 -0.32226,2.810472 -0.32226,2.810472 1.17814,1.419564 1.17813,1.419564 z m -0.8589,-0.946211 -1.75303,0.332096 -0.58155,-1.515493 -0.58155,-1.515493 0.34479,-1.808414 0.34479,-1.808413 2.30901,-0.328622 2.309,-0.328622 -0.31922,3.320432 -0.31922,3.320433 z m 10.25302,1.184283 h 1.75511 l 1.23432,-1.487265 1.23432,-1.487265 -0.75538,-1.762735 -0.75539,-1.762735 0.20961,-2.661634 0.2096,-2.661634 -2.11408,-0.670984 -2.11409,-0.670985 -1.47617,1.225119 -1.47618,1.225119 0.5,0.5 0.5,0.5 1.48036,-1.22859 1.48036,-1.228591 1.04381,0.645107 1.0438,0.645107 v 1.391293 1.391293 l -1.75,1.019281 -1.75,1.019282 1.64301,0.03041 1.64301,0.03041 0.45968,1.25 0.45968,1.25 -0.43602,1.25 -0.43603,1.25 h -1.71666 -1.71667 l -1.40177,-1.25 -1.40177,-1.25 1.32421,1.75 1.32422,1.75 z m 11.96258,-0.20409 2.53742,-0.29591 v -3.5 -3.5 l -2.69516,-0.31113 -2.69515,-0.311131 0.55214,-1.438869 0.55215,-1.43887 h 2.39301 2.39301 v -1 -1 h -3 -3 v 1.418213 1.418212 l -0.57859,1.507782 -0.57859,1.507781 2.82859,0.324006 2.82859,0.324006 0.32014,2.254471 0.32013,2.254471 -1.58287,0.607404 -1.58287,0.607405 -1.48726,-1.23432 -1.48727,-1.23432 v 0.955778 0.955778 l 0.71258,0.712576 0.71257,0.712576 z m -227.96258,-4.79591 0.96937,-1.5 0.0153,1.416667 0.0153,1.416666 0.46034,-0.460337 0.46033,-0.460336 -0.59907,-2.290865 -0.59908,-2.290864 -0.84594,1.334534 -0.84592,1.334535 v 1.5 1.5 z m 152.84167,-1.025 0.38333,-1.15 -1.1125,-1.1125 -1.1125,-1.1125 v 1.533333 1.533334 l 0.72917,0.729166 0.72916,0.729167 z m 2.82061,0.275 0.50439,-1.25 -0.50439,-1.25 -0.50439,-1.25 v 2.5 2.5 z m -356.812147,-0.784328 0.350135,-0.33261 -0.659152,-1.066531 -0.659153,-1.066531 h -0.98041 -0.980409 l 1.289426,1.399141 1.289427,1.399141 z m 197.754037,0.263495 0.60416,-0.604167 -0.52522,-1.3125 -0.52522,-1.3125 -0.0789,1.916667 -0.0789,1.916666 z m 8,0 0.60416,-0.604167 -0.52522,-1.3125 -0.52522,-1.3125 -0.0789,1.916667 -0.079,1.916666 z m 10.20485,-0.74448 0.30901,0.01531 -0.61803,-1 -0.61803,-1 -1.19099,0.01531 -1.19098,0.01531 1.5,0.969374 1.5,0.969374 z m 132.85765,-0.31802 0.66666,-0.666667 -0.66666,-0.666667 -0.66667,-0.666666 v 1.333333 1.333333 z m 33.77431,0.333333 h 0.44099 l 0.61803,-1 0.61803,-1 h -1.05901 -1.05902 v 1 1 z m -265.94098,-5 h 0.5 v -0.5 -0.5 h -0.5 -0.5 v 0.5 0.5 z"
       id="path1" />
  </g>
</svg>
